HIERARCHY
ROOT hip
{
  OFFSET 0 0 0
  CHANNELS 6 Xposition Yposition Zposition Zrotation Yrotation Xrotation
  JOINT abdomen
  {
    OFFSET 0 20.6881 -0.73152
    CHANNELS 3 Zrotation Xrotation Yrotation
    JOINT chest
    {
      OFFSET 0 11.7043 -0.48768
      CHANNELS 3 Zrotation Xrotation Yrotation
      JOINT neck
      {
        OFFSET 0 22.1894 -2.19456
        CHANNELS 3 Zrotation Xrotation Yrotation
        JOINT head
        {
          OFFSET -0.24384 7.07133 1.2192
          CHANNELS 3 Zrotation Xrotation Yrotation
          JOINT leftEye
          {
            OFFSET 4.14528 8.04674 8.04672
            CHANNELS 3 Zrotation Xrotation Yrotation
            End Site
            {
              OFFSET 1 0 0
            }
          }
          JOINT rightEye
          {
            OFFSET -3.6576 8.04674 8.04672
            CHANNELS 3 Zrotation Xrotation Yrotation
            End Site
            {
              OFFSET 1 0 0
            }
          }
        }
      }
      JOINT rCollar
      {
        OFFSET -2.68224 19.2634 -4.8768
        CHANNELS 3 Zrotation Xrotation Yrotation
        JOINT rShldr
        {
          OFFSET -8.77824 -1.95073 1.46304
          CHANNELS 3 Zrotation Xrotation Yrotation
          JOINT rForeArm
          {
            OFFSET -28.1742 -1.7115 0.48768
            CHANNELS 3 Zrotation Xrotation Yrotation
            JOINT rHand
            {
              OFFSET -22.5879 0.773209 7.07136
              CHANNELS 3 Zrotation Xrotation Yrotation
              JOINT rThumb1
              {
                OFFSET -1.2192 -0.487915 3.41376
                CHANNELS 3 Zrotation Xrotation Yrotation
                JOINT rThumb2
                {
                  OFFSET -3.37035 -0.52449 3.41376
                  CHANNELS 3 Zrotation Xrotation Yrotation
                  End Site
                  {
                    OFFSET -1.78271 -1.18214 1.43049
                  }
                }
              }
              JOINT rIndex1
              {
                OFFSET -7.75947 0.938293 5.60832
                CHANNELS 3 Zrotation Xrotation Yrotation
                JOINT rIndex2
                {
                  OFFSET -2.54057 -0.884171 1.56538
                  CHANNELS 3 Zrotation Xrotation Yrotation
                  End Site
                  {
                    OFFSET -1.62519 -0.234802 1.16502
                  }
                }
              }
              JOINT rMid1
              {
                OFFSET -8.24714 1.18213 3.41376
                CHANNELS 3 Zrotation Xrotation Yrotation
                JOINT rMid2
                {
                  OFFSET -3.10165 -0.590103 1.0647
                  CHANNELS 3 Zrotation Xrotation Yrotation
                  End Site
                  {
                    OFFSET -2.48547 -0.328903 0.83742
                  }
                }
              }
              JOINT rRing1
              {
                OFFSET -8.82822 0.546677 1.51678
                CHANNELS 3 Zrotation Xrotation Yrotation
                JOINT rRing2
                {
                  OFFSET -2.60934 -0.819778 -0.0198488
                  CHANNELS 3 Zrotation Xrotation Yrotation
                  End Site
                  {
                    OFFSET -2.33842 -0.294052 0.168128
                  }
                }
              }
              JOINT rPinky1
              {
                OFFSET -8.27202 -0.0477905 -0.4584
                CHANNELS 3 Zrotation Xrotation Yrotation
                JOINT rPinky2
                {
                  OFFSET -1.82734 -0.647385 -0.700984
                  CHANNELS 3 Zrotation Xrotation Yrotation
                  End Site
                  {
                    OFFSET -1.69225 -0.51767 -0.607171
                  }
                }
              }
            }
          }
        }
      }
      JOINT lCollar
      {
        OFFSET 2.68224 19.2634 -4.8768
        CHANNELS 3 Zrotation Xrotation Yrotation
        JOINT lShldr
        {
          OFFSET 8.77824 -1.95073 1.46304
          CHANNELS 3 Zrotation Xrotation Yrotation
          JOINT lForeArm
          {
            OFFSET 28.1742 -1.7115 0.48768
            CHANNELS 3 Zrotation Xrotation Yrotation
            JOINT lHand
            {
              OFFSET 22.5879 0.773209 7.07136
              CHANNELS 3 Zrotation Xrotation Yrotation
              JOINT lThumb1
              {
                OFFSET 1.2192 -0.487915 3.41376
                CHANNELS 3 Zrotation Xrotation Yrotation
                JOINT lThumb2
                {
                  OFFSET 3.37035 -0.52449 3.41376
                  CHANNELS 3 Zrotation Xrotation Yrotation
                  End Site
                  {
                    OFFSET 1.78271 -1.18214 1.43049
                  }
                }
              }
              JOINT lIndex1
              {
                OFFSET 7.75947 0.938293 5.60832
                CHANNELS 3 Zrotation Xrotation Yrotation
                JOINT lIndex2
                {
                  OFFSET 2.54057 -0.884171 1.56538
                  CHANNELS 3 Zrotation Xrotation Yrotation
                  End Site
                  {
                    OFFSET 1.62519 -0.234802 1.16502
                  }
                }
              }
              JOINT lMid1
              {
                OFFSET 8.24714 1.18213 3.41376
                CHANNELS 3 Zrotation Xrotation Yrotation
                JOINT lMid2
                {
                  OFFSET 3.10165 -0.590103 1.0647
                  CHANNELS 3 Zrotation Xrotation Yrotation
                  End Site
                  {
                    OFFSET 2.48547 -0.328903 0.83742
                  }
                }
              }
              JOINT lRing1
              {
                OFFSET 8.82822 0.546677 1.51678
                CHANNELS 3 Zrotation Xrotation Yrotation
                JOINT lRing2
                {
                  OFFSET 2.60934 -0.819778 -0.0198488
                  CHANNELS 3 Zrotation Xrotation Yrotation
                  End Site
                  {
                    OFFSET 2.33842 -0.294052 0.168128
                  }
                }
              }
              JOINT lPinky1
              {
                OFFSET 8.27202 -0.0477905 -0.4584
                CHANNELS 3 Zrotation Xrotation Yrotation
                JOINT lPinky2
                {
                  OFFSET 1.82734 -0.647385 -0.700984
                  CHANNELS 3 Zrotation Xrotation Yrotation
                  End Site
                  {
                    OFFSET 1.69225 -0.51767 -0.607171
                  }
                }
              }
            }
          }
        }
      }
    }
  }
  JOINT rButtock
  {
    OFFSET -8.77824 4.35084 1.2192
    CHANNELS 3 Zrotation Xrotation Yrotation
    JOINT rThigh
    {
      OFFSET 0 -1.70687 -2.19456
      CHANNELS 3 Zrotation Xrotation Yrotation
      JOINT rShin
      {
        OFFSET 0 -36.8199 0.73152
        CHANNELS 3 Zrotation Xrotation Yrotation
        JOINT rFoot
        {
          OFFSET 0.73152 -45.1104 -5.12064
          CHANNELS 3 Zrotation Xrotation Yrotation
          End Site
          {
            OFFSET -1.1221 -3.69964 12.103
          }
        }
      }
    }
  }
  JOINT lButtock
  {
    OFFSET 8.77824 4.35084 1.2192
    CHANNELS 3 Zrotation Xrotation Yrotation
    JOINT lThigh
    {
      OFFSET 0 -1.70687 -2.19456
      CHANNELS 3 Zrotation Xrotation Yrotation
      JOINT lShin
      {
        OFFSET 0 -36.8199 0.73152
        CHANNELS 3 Zrotation Xrotation Yrotation
        JOINT lFoot
        {
          OFFSET -0.73152 -45.1104 -5.12064
          CHANNELS 3 Zrotation Xrotation Yrotation
          End Site
          {
            OFFSET 1.1221 -3.69964 12.103
          }
        }
      }
    }
  }
}
MOTION
Frames:	4
Frame Time:	0.03333
22.2401 67.2626 54.9165 -176.713 6.2731 541.99 -2.36873 15.588600000000003 9.64976 -0.30501 -9.83973 2.57139 -4.14029 16.4869 -3.22348 5.77509 -34.91210000000001 -4.757299999999999 -0.0 0.0 0.0 -0.0 0.0 0.0 -2.34943e-14 -8.98202e-14 5.1237500000000005e-15 -0.684861 6.1916 100.59399999999998 -27.5161 -42.5021 88.4796 -4.9148 -51.479 -10.170900000000001 9.06357e-10 2.57874e-12 5.934999999999999e-10 1.53598e-09 2.85198e-11 1.0597e-09 9.063609999999999e-10 2.57973e-12 5.93496e-10 7.730909999999999 5.47488 0.417314 9.063599999999999e-10 2.57161e-12 5.935090000000001e-10 2.90554 0.965183 0.102902 9.063669999999999e-10 2.57674e-12 5.935059999999999e-10 10.278600000000003 0.731801 0.0259123 9.06351e-10 2.57651e-12 5.935090000000001e-10 2.22167 -0.733487 -0.20892000000000002 -2.36041e-14 -8.98197e-14 4.9109900000000005e-15 -14.694999999999999 45.96699999999999 -91.7455 23.0896 -17.4885 -46.8379 0.7557169999999999 -23.903299999999998 3.571 1.2515300000000003e-10 2.08549e-10 1.20479e-10 2.13224e-10 3.71858e-10 2.1153899999999997e-10 1.25149e-10 2.0855399999999998e-10 1.2048899999999998e-10 -7.730909999999999 5.47488 -0.417314 1.25154e-10 2.0854300000000006e-10 1.20481e-10 -2.90554 0.965183 -0.102902 1.25144e-10 2.0855e-10 1.20477e-10 -10.278600000000003 0.731801 -0.0259123 1.25155e-10 2.08544e-10 1.20464e-10 -2.22167 -0.733487 0.20892000000000002 -2.03217e-16 0.0 -3.88251e-19 -15.096599999999999 -49.8743 -20.2398 -172.616 80.1776 172.993 -4.19767 2.33974 -17.6843 2.03217e-16 0.0 3.88251e-19 25.3576 -53.2218 49.207800000000006 3.5720700000000005 76.343 -3.71975 11.618800000000002 -17.2208 24.4763
22.4134 66.9417 53.447500000000005 -176.888 1.365 541.385 -2.23845 16.264100000000003 7.83045 0.0639498 -10.0884 2.06253 -4.2192300000000005 16.6267 -3.7775400000000006 5.66995 -35.173700000000004 -5.904310000000001 -0.0 0.0 0.0 -0.0 0.0 0.0 -5.95766e-14 -1.3077599999999998e-14 -5.8676e-14 0.323948 3.98523 99.8797 -27.9777 -40.5843 84.93949999999998 -4.47545 -49.88569999999999 -9.603470000000002 -9.85115e-11 -2.49105e-11 -2.06158e-10 -1.63254e-10 -4.29387e-11 -3.5524000000000006e-10 -9.85053e-11 -2.4910699999999998e-11 -2.0617e-10 7.730909999999999 5.47488 0.417314 -9.85105e-11 -2.4910599999999995e-11 -2.06157e-10 2.90554 0.965183 0.102902 -9.85028e-11 -2.4910699999999998e-11 -2.06158e-10 10.278600000000003 0.731801 0.0259123 -9.85158e-11 -2.49104e-11 -2.06154e-10 2.22167 -0.733487 -0.20892000000000002 -5.94601e-14 -1.3073900000000001e-14 -5.87614e-14 -8.40568 44.1193 -98.58619999999999 22.3628 -16.3152 -44.765299999999996 0.839271 -25.0883 3.77254 4.432099999999999e-10 -9.46208e-10 -2.8827e-10 7.712740000000001e-10 -1.6146699999999998e-09 -4.88582e-10 4.43206e-10 -9.462e-10 -2.88256e-10 -7.730909999999999 5.47488 -0.417314 4.43214e-10 -9.46213e-10 -2.88272e-10 -2.90554 0.965183 -0.102902 4.4320199999999994e-10 -9.462050000000002e-10 -2.8827600000000003e-10 -10.278600000000003 0.731801 -0.0259123 4.43213e-10 -9.46209e-10 -2.88287e-10 -2.22167 -0.733487 0.20892000000000002 -2.03217e-16 0.0 -3.88251e-19 -16.8393 -54.9142 -21.480300000000003 -172.969 79.704 173.439 -4.53039 1.04421 -17.887199999999996 2.03217e-16 0.0 3.88251e-19 21.0303 -53.6863 44.2523 3.77165 77.2055 -4.1329 11.8879 -18.5144 23.8682
22.4746 66.6811 51.8275 -177.497 -2.8621 540.954 -2.1996799999999994 16.7659 6.02864 0.53713 -10.263400000000003 1.59438 -4.27878 16.7804 -4.38473 5.6177 -35.1823 -7.149030000000001 -0.0 0.0 0.0 -0.0 0.0 0.0 -6.57794e-14 1.88331e-14 1.77792e-14 1.4703700000000002 2.3631100000000003 98.5606 -28.259700000000002 -38.7381 81.6681 -4.038399999999999 -48.1478 -9.02599 1.5657699999999997e-10 -9.6981e-11 -1.39937e-10 2.76825e-10 -1.69612e-10 -2.357789999999999e-10 1.56586e-10 -9.698069999999999e-11 -1.39948e-10 7.730909999999999 5.47488 0.417314 1.5657699999999997e-10 -9.69786e-11 -1.39936e-10 2.90554 0.965183 0.102902 1.56583e-10 -9.698110000000001e-11 -1.39938e-10 10.278600000000003 0.731801 0.0259123 1.56574e-10 -9.69814e-11 -1.39933e-10 2.22167 -0.733487 -0.20892000000000002 -6.56298e-14 1.8838e-14 1.77256e-14 -2.28209 41.8487 -104.933 21.6623 -15.2579 -42.891999999999996 0.922191 -26.1835 3.96268 7.16274e-10 -1.95865e-09 -6.28019e-10 1.2498e-09 -3.36255e-09 -1.07142e-09 7.16269e-10 -1.95864e-09 -6.28002e-10 -7.730909999999999 5.47488 -0.417314 7.162780000000001e-10 -1.95865e-09 -6.28022e-10 -2.90554 0.965183 -0.102902 7.16267e-10 -1.95864e-09 -6.28024e-10 -10.278600000000003 0.731801 -0.0259123 7.162780000000001e-10 -1.95865e-09 -6.28033e-10 -2.22167 -0.733487 0.20892000000000002 -2.03217e-16 0.0 -3.88251e-19 -19.1417 -59.1905 -22.566299999999995 -172.55799999999996 80.4265 173.089 -4.4838000000000005 -0.36751800000000007 -16.6278 2.03217e-16 0.0 3.88251e-19 16.2844 -53.8239 38.6782 3.94586 77.9484 -4.53226 12.1853 -19.5315 23.5517
22.5851 66.479 50.0845 -177.836 -7.4574 540.3360000000001 -2.2692100000000006 17.0915 4.24828 1.11673 -10.3648 1.16728 -4.31797 16.9474 -5.04532 5.63761 -34.9361 -8.4801 -0.0 0.0 0.0 -0.0 0.0 0.0 -4.21026e-14 5.91205e-15 2.34489e-13 2.74882 1.29132 96.8302 -28.414700000000003 -36.967099999999995 78.58090000000001 -3.61162 -46.2644 -8.44492 1.6716199999999997e-09 -2.13633e-10 7.92165e-10 2.85622e-09 -3.514999999999999e-10 1.41809e-09 1.67163e-09 -2.1363100000000002e-10 7.921600000000001e-10 7.730909999999999 5.47488 0.417314 1.6716199999999997e-09 -2.1363199999999996e-10 7.9217e-10 2.90554 0.965183 0.102902 1.67163e-09 -2.13634e-10 7.92167e-10 10.278600000000003 0.731801 0.0259123 1.6716199999999997e-09 -2.13636e-10 7.921709999999999e-10 2.22167 -0.733487 -0.20892000000000002 -4.21131e-14 5.9161e-15 2.3437200000000003e-13 3.65904 39.1631 -110.83 21.018 -14.351999999999999 -41.2004 1.0027 -27.1888 4.1405 9.44345e-10 -2.8287699999999995e-09 -8.987670000000002e-10 1.64879e-09 -4.87178e-09 -1.53696e-09 9.44337e-10 -2.8287599999999996e-09 -8.987480000000001e-10 -7.730909999999999 5.47488 -0.417314 9.44347e-10 -2.8287599999999996e-09 -8.98769e-10 -2.90554 0.965183 -0.102902 9.44341e-10 -2.8287699999999995e-09 -8.98768e-10 -10.278600000000003 0.731801 -0.0259123 9.44349e-10 -2.8287599999999996e-09 -8.987759999999999e-10 -2.22167 -0.733487 0.20892000000000002 -2.03217e-16 0.0 -3.88251e-19 -21.8057 -62.7196 -23.281 -170.994 82.3417 171.553 -3.9408 -1.92853 -13.906800000000002 2.03217e-16 0.0 3.88251e-19 11.253599999999999 -53.543 32.5914 4.079320000000001 78.57179999999998 -4.90266 12.531 -20.2653 23.5266
